<?xml version="1.0" encoding="UTF-8" standalone="no"?>
<!DOCTYPE svg PUBLIC "-//W3C//DTD SVG 1.1//EN" "http://www.w3.org/Graphics/SVG/1.1/DTD/svg11.dtd">
<svg width="100%" height="100%" viewBox="0 0 1150 296" version="1.1" xmlns="http://www.w3.org/2000/svg" xmlns:xlink="http://www.w3.org/1999/xlink" xml:space="preserve" xmlns:serif="http://www.serif.com/" style="fill-rule:evenodd;clip-rule:evenodd;stroke-linejoin:round;stroke-miterlimit:2;">
    <g transform="matrix(1,0,0,1,-291.667678,-300.000831)">
        <g>
            <g transform="matrix(4.166667,0,0,4.166667,1020.745833,469.615)">
                <path d="M0,-1.919L-43.869,-1.919C-43.939,-1.919 -44.03,-1.947 -44.077,-1.914C-44.192,-1.831 -44.364,-1.728 -44.375,-1.619C-44.416,-1.212 -44.392,-0.798 -44.412,-0.388C-44.428,-0.063 -44.274,0.027 -43.975,0.021C-43.409,0.009 -42.842,0.025 -42.275,0.025C-29.187,0.026 -16.098,0.027 -3.009,0.027C-2.428,0.027 -1.847,0.028 -1.267,0.006C-1.127,0.001 -0.917,-0.054 -0.864,-0.153C-0.571,-0.695 -0.318,-1.257 0,-1.919M-70.643,-1.919L-90.821,-1.919C-92.311,-1.919 -92.304,-1.919 -92.26,-0.409C-92.25,-0.095 -92.133,0.014 -91.828,0.011C-91.091,0.004 -90.355,0.026 -89.619,0.026C-79.183,0.027 -68.747,0.028 -58.31,0.026C-55.408,0.025 -52.505,0.009 -49.602,0.019C-49.196,0.021 -49.075,-0.123 -49.108,-0.501C-49.134,-0.797 -49.144,-1.099 -49.111,-1.392C-49.062,-1.831 -49.233,-1.93 -49.657,-1.929C-56.652,-1.915 -63.647,-1.919 -70.643,-1.919" style="fill:white;fill-rule:nonzero;"/>
            </g>
            <g transform="matrix(4.166667,0,0,4.166667,445.51,463.36)">
                <path d="M0,-7.313C0.135,-7.403 0.223,-7.444 0.287,-7.508C1.138,-8.359 1.956,-9.245 2.843,-10.056C3.449,-10.609 3.685,-11.248 3.795,-12.043C4.155,-14.631 4.732,-17.171 5.972,-19.504C6.753,-20.975 7.501,-22.474 8.408,-23.867C10.021,-26.345 12.049,-28.442 14.527,-30.096C17.382,-32.002 20.131,-31.648 22.723,-29.617C24.282,-28.395 25.424,-26.841 25.923,-24.881C26.314,-23.346 26.055,-21.881 25.272,-20.543C23.4,-17.342 20.751,-14.927 17.593,-13.017C15.755,-11.906 13.856,-10.924 11.842,-10.212C9.975,-9.552 8.034,-9.126 6.051,-8.934C5.883,-8.918 5.688,-8.829 5.567,-8.711C4.41,-7.587 3.266,-6.449 2.119,-5.314C2.101,-5.296 2.097,-5.264 2.062,-5.18L2.64,-5.18C4.057,-5.179 5.474,-5.17 6.89,-5.189C7.069,-5.192 7.263,-5.322 7.42,-5.435C8.005,-5.856 8.548,-6.345 9.162,-6.716C10.456,-7.499 11.735,-8.334 13.11,-8.948C15.691,-10.1 18.398,-10.909 21.211,-11.262C23.851,-11.593 26.497,-11.616 29.101,-10.935C31.295,-10.362 32.778,-9.006 33.492,-6.842C34.152,-4.839 34.094,-2.821 33.496,-0.823C32.835,1.383 31.334,2.727 29.112,3.309C26.707,3.94 24.28,3.97 21.825,3.711C19.126,3.425 16.576,2.602 14.037,1.697C11.653,0.848 9.635,-0.602 7.598,-2.036C7.37,-2.197 7.063,-2.33 6.792,-2.334C5.319,-2.354 3.846,-2.33 2.373,-2.319C2.291,-2.319 2.209,-2.299 2.054,-2.279C2.347,-1.968 2.596,-1.693 2.856,-1.429C3.613,-0.664 4.357,0.115 5.143,0.849C5.387,1.078 5.737,1.287 6.06,1.324C9.433,1.714 12.595,2.746 15.603,4.311C18.638,5.891 21.348,7.877 23.583,10.481C24.585,11.649 25.425,12.913 25.901,14.401C26.403,15.967 26.074,17.441 25.386,18.841C24.344,20.96 22.678,22.434 20.483,23.318C18.634,24.062 16.88,23.828 15.188,22.856C12.634,21.388 10.659,19.305 8.917,16.968C7.261,14.748 6.051,12.285 5.041,9.729C4.299,7.853 4.028,5.847 3.717,3.86C3.67,3.558 3.531,3.22 3.325,3.001C2.325,1.94 1.288,0.913 0.26,-0.122C0.21,-0.173 0.118,-0.182 -0.013,-0.234C-0.031,-0.057 -0.056,0.077 -0.056,0.21C-0.055,1.612 -0.067,3.015 -0.034,4.417C-0.028,4.69 0.093,5.008 0.266,5.22C1.591,6.842 2.722,8.601 3.559,10.503C4.291,12.167 4.812,13.93 5.341,15.675C6.011,17.885 6.241,20.172 6.232,22.473C6.225,24.247 6.018,26.007 5.388,27.686C4.854,29.109 3.86,30.171 2.5,30.773C-0.301,32.014 -3.118,31.951 -5.85,30.519C-7.436,29.688 -8.166,28.221 -8.608,26.565C-9.1,24.724 -9.183,22.859 -9.076,20.964C-8.945,18.644 -8.449,16.399 -7.818,14.175C-6.882,10.873 -5.254,7.932 -3.159,5.233C-3.029,5.065 -2.911,4.832 -2.909,4.628C-2.892,3.084 -2.905,1.54 -2.911,-0.004C-2.911,-0.044 -2.932,-0.084 -2.965,-0.2C-3.147,-0.059 -3.318,0.047 -3.457,0.185C-4.382,1.103 -5.296,2.032 -6.224,2.947C-6.47,3.19 -6.556,3.461 -6.608,3.804C-6.785,4.963 -6.971,6.126 -7.245,7.265C-8.261,11.482 -10.256,15.217 -13,18.551C-14.272,20.097 -15.749,21.442 -17.436,22.541C-20.223,24.354 -22.81,24.16 -25.425,22.183C-26.66,21.25 -27.703,20.139 -28.387,18.687C-29.167,17.03 -29.307,15.401 -28.546,13.736C-27.656,11.789 -26.332,10.165 -24.767,8.711C-22.662,6.755 -20.286,5.241 -17.722,3.951C-15.167,2.664 -12.486,1.872 -9.68,1.513C-8.811,1.402 -8.227,1.049 -7.666,0.455C-6.84,-0.42 -5.966,-1.25 -5.114,-2.1C-5.078,-2.137 -5.056,-2.188 -4.983,-2.302C-5.182,-2.344 -5.334,-2.404 -5.486,-2.404C-6.846,-2.407 -8.207,-2.413 -9.566,-2.385C-9.813,-2.38 -10.085,-2.263 -10.297,-2.124C-11.694,-1.211 -13.047,-0.227 -14.474,0.636C-16.169,1.663 -18.085,2.174 -19.955,2.786C-21.51,3.296 -23.104,3.618 -24.726,3.785C-27.249,4.044 -29.762,4.009 -32.22,3.281C-34.979,2.464 -36.436,0.805 -36.848,-2.548C-37.01,-3.87 -36.908,-5.177 -36.528,-6.456C-35.901,-8.567 -34.595,-10.032 -32.475,-10.742C-30.782,-11.309 -29.034,-11.391 -27.273,-11.401C-23.144,-11.423 -19.247,-10.356 -15.547,-8.643C-13.816,-7.841 -12.262,-6.654 -10.646,-5.614C-10.301,-5.392 -9.995,-5.242 -9.563,-5.248C-8.162,-5.267 -6.76,-5.228 -5.359,-5.215C-5.268,-5.214 -5.177,-5.25 -5.038,-5.279C-5.107,-5.398 -5.139,-5.49 -5.2,-5.553C-6.177,-6.539 -7.143,-7.537 -8.147,-8.495C-8.374,-8.711 -8.724,-8.871 -9.037,-8.916C-11.826,-9.31 -14.526,-9.971 -17.093,-11.186C-19.644,-12.393 -22.043,-13.823 -24.176,-15.667C-25.789,-17.06 -27.235,-18.605 -28.271,-20.502C-29.329,-22.441 -29.334,-24.393 -28.341,-26.316C-27.311,-28.309 -25.749,-29.824 -23.721,-30.791C-21.624,-31.791 -19.613,-31.388 -17.7,-30.216C-15.592,-28.925 -13.896,-27.19 -12.381,-25.264C-11.39,-24.004 -10.517,-22.668 -9.824,-21.219C-9.282,-20.084 -8.69,-18.97 -8.205,-17.811C-7.48,-16.08 -7.064,-14.252 -6.794,-12.401C-6.655,-11.441 -6.382,-10.632 -5.621,-9.962C-4.709,-9.16 -3.892,-8.25 -3.032,-7.389C-2.986,-7.343 -2.92,-7.317 -2.771,-7.225C-2.771,-7.64 -2.767,-7.982 -2.771,-8.323C-2.788,-9.527 -2.791,-10.732 -2.836,-11.934C-2.846,-12.197 -2.95,-12.502 -3.112,-12.706C-5.32,-15.47 -7.055,-18.478 -7.907,-21.941C-8.299,-23.533 -8.764,-25.123 -8.969,-26.742C-9.309,-29.42 -9.295,-32.103 -8.455,-34.729C-7.71,-37.055 -6.148,-38.426 -3.794,-38.95C-2.102,-39.327 -0.422,-39.292 1.246,-38.818C3.736,-38.111 5.187,-36.462 5.737,-33.949C6.222,-31.737 6.236,-29.516 6.042,-27.276C5.793,-24.412 4.926,-21.706 3.965,-19.025C3.458,-17.606 2.725,-16.293 1.868,-15.055C1.289,-14.219 0.674,-13.408 0.086,-12.578C0.01,-12.471 -0.04,-12.319 -0.041,-12.187C-0.054,-10.671 -0.055,-9.156 -0.056,-7.64C-0.056,-7.558 -0.029,-7.477 0,-7.313M-3.166,8.935C-3.555,9.967 -4.024,11.058 -4.378,12.186C-4.894,13.829 -5.037,15.546 -5.124,17.255C-5.197,18.69 -5.05,20.111 -4.443,21.449C-3.711,23.061 -1.868,23.855 -0.3,23.175C0.786,22.704 1.486,21.847 1.83,20.719C2.317,19.12 2.259,17.476 2.153,15.838C1.99,13.312 1.246,10.937 0.19,8.7C-0.822,9.38 -1.922,9.054 -3.166,8.935M0.188,-16.214C0.391,-16.727 0.578,-17.236 0.79,-17.735C1.967,-20.504 2.265,-23.417 2.135,-26.382C2.089,-27.438 1.834,-28.476 1.254,-29.407C0.47,-30.667 -1.26,-31.298 -2.556,-30.779C-3.77,-30.292 -4.475,-29.388 -4.803,-28.145C-5.22,-26.561 -5.186,-24.958 -5.059,-23.343C-4.888,-21.162 -4.344,-19.08 -3.461,-17.085C-3.303,-16.727 -3.089,-16.395 -2.9,-16.051C-2.851,-16.036 -2.801,-16.021 -2.752,-16.007C-2.9,-16.714 -2.5,-16.682 -2.087,-16.658C-1.791,-16.641 -1.492,-16.657 -1.195,-16.654C-0.668,-16.649 -0.104,-16.755 0.188,-16.214M-14.09,-5.465C-14.771,-5.748 -15.402,-6.031 -16.048,-6.277C-18.634,-7.263 -21.334,-7.477 -24.064,-7.372C-25.127,-7.332 -26.166,-7.074 -27.094,-6.501C-29.159,-5.225 -29.229,-2.45 -27.23,-1.072C-26.388,-0.49 -25.425,-0.283 -24.428,-0.195C-23.099,-0.077 -21.776,-0.15 -20.449,-0.275C-18.499,-0.457 -16.638,-0.948 -14.855,-1.747C-14.495,-1.908 -14.14,-2.083 -13.82,-2.234C-13.991,-2.423 -14.28,-2.596 -14.277,-2.765C-14.265,-3.66 -14.476,-4.574 -14.09,-5.465M6.216,6.166C6.402,6.601 6.561,7.006 6.746,7.399C7.155,8.268 7.491,9.186 8.013,9.981C8.762,11.124 9.603,12.218 10.494,13.255C11.474,14.395 12.6,15.391 13.99,16.036C15.085,16.545 16.187,16.567 17.177,15.861C18.836,14.678 19.162,13.124 18.209,11.321C17.58,10.131 16.683,9.164 15.708,8.241C13.716,6.353 11.477,4.899 8.852,4.064C8.741,4.028 8.625,4.013 8.506,3.988C8.398,4.861 6.98,6.205 6.216,6.166M6.177,-13.695C6.778,-13.8 7.043,-13.51 7.314,-13.208C7.569,-12.923 7.863,-12.674 8.112,-12.384C8.262,-12.209 8.393,-11.999 8.47,-11.783C8.553,-11.552 8.667,-11.548 8.855,-11.622C11.36,-12.593 13.682,-13.86 15.587,-15.794C16.281,-16.498 17.003,-17.185 17.605,-17.964C18.312,-18.877 18.82,-19.897 18.666,-21.134C18.425,-23.05 16.047,-24.77 13.918,-23.593C13.046,-23.111 12.188,-22.545 11.461,-21.87C9.686,-20.222 8.237,-18.304 7.198,-16.101C6.845,-15.351 6.549,-14.575 6.177,-13.695M-11.488,3.959C-12.444,4.37 -13.413,4.728 -14.329,5.192C-16.358,6.221 -18.059,7.709 -19.65,9.302C-20.515,10.168 -21.285,11.161 -21.543,12.421C-21.732,13.344 -21.631,14.244 -21.051,15.01C-19.922,16.502 -18.144,16.823 -16.51,15.893C-15.161,15.125 -14.082,14.055 -13.064,12.906C-11.443,11.075 -10.146,9.052 -9.346,6.728C-9.282,6.543 -9.254,6.346 -9.207,6.142C-10.005,6.081 -11.299,4.827 -11.488,3.959M-11.301,-11.379C-11.502,-11.922 -11.189,-12.213 -10.872,-12.511C-10.551,-12.811 -10.255,-13.137 -9.933,-13.434C-9.804,-13.553 -9.643,-13.669 -9.478,-13.708C-9.216,-13.771 -9.189,-13.902 -9.282,-14.106C-9.743,-15.124 -10.135,-16.182 -10.685,-17.15C-11.661,-18.87 -12.929,-20.384 -14.38,-21.724C-15.09,-22.381 -15.878,-22.98 -16.71,-23.473C-17.909,-24.183 -19.19,-24.145 -20.301,-23.291C-21.775,-22.157 -22.105,-20.495 -21.12,-18.793C-20.423,-17.589 -19.502,-16.597 -18.487,-15.653C-16.419,-13.732 -14.011,-12.409 -11.301,-11.379M10.839,-5.472C10.934,-5.368 10.969,-5.294 11.024,-5.273C11.381,-5.14 11.446,-4.864 11.438,-4.524C11.425,-3.972 11.445,-3.419 11.428,-2.867C11.423,-2.731 11.359,-2.567 11.266,-2.47C11.08,-2.277 11.148,-2.186 11.349,-2.097C11.788,-1.902 12.219,-1.685 12.667,-1.51C15.135,-0.543 17.687,-0.038 20.347,-0.214C21.216,-0.272 22.095,-0.353 22.943,-0.544C24.209,-0.83 25.126,-1.607 25.577,-2.847C25.813,-3.498 25.836,-4.173 25.56,-4.834C24.929,-6.341 23.66,-7.037 22.173,-7.298C19.883,-7.7 17.59,-7.42 15.353,-6.898C13.846,-6.547 12.392,-5.971 10.839,-5.472M0.23,-4.565C0.651,-4.471 1.011,-4.404 1.362,-4.308C1.684,-4.22 1.659,-3.946 1.667,-3.685C1.674,-3.425 1.536,-3.349 1.31,-3.31C0.958,-3.251 0.611,-3.163 0.299,-3.096C0.548,-2.684 0.777,-2.29 1.025,-1.91C1.055,-1.864 1.243,-1.849 1.271,-1.886C1.479,-2.158 1.787,-2.356 1.769,-2.78C1.736,-3.549 1.76,-4.32 1.76,-5.123C1.649,-5.25 1.498,-5.448 1.317,-5.613C1.251,-5.673 1.051,-5.706 1.021,-5.667C0.747,-5.316 0.498,-4.946 0.23,-4.565M-3.172,-4.453C-3.439,-4.852 -3.734,-5.293 -4.031,-5.736C-4.791,-5.266 -5.014,-4.724 -4.76,-4.107C-4.21,-4.227 -3.678,-4.343 -3.172,-4.453M-4.782,-3.646C-4.782,-3.175 -4.945,-2.606 -4.447,-2.148C-3.976,-1.716 -3.965,-1.716 -3.695,-2.284C-3.617,-2.447 -3.492,-2.588 -3.381,-2.734C-3.304,-2.836 -3.214,-2.929 -3.089,-3.072C-3.467,-3.116 -3.77,-3.104 -4.037,-3.196C-4.297,-3.285 -4.521,-3.482 -4.782,-3.646M-0.727,-2.028C-0.834,-1.602 -0.94,-1.213 -1.024,-0.82C-1.037,-0.763 -0.966,-0.66 -0.906,-0.62C-0.485,-0.343 0.441,-0.718 0.528,-1.2C0.539,-1.257 0.509,-1.358 0.466,-1.382C0.082,-1.6 -0.31,-1.804 -0.727,-2.028M-0.868,-5.244C-0.691,-5.436 -0.54,-5.635 -0.353,-5.792C-0.15,-5.963 0.101,-6.079 0.296,-6.257C0.351,-6.306 0.329,-6.523 0.267,-6.605C-0.113,-7.105 -0.354,-7.153 -1.009,-6.923C-0.963,-6.373 -0.917,-5.833 -0.868,-5.244M-2.106,-2.089C-2.497,-1.845 -2.88,-1.613 -3.254,-1.366C-3.305,-1.333 -3.341,-1.218 -3.325,-1.156C-3.205,-0.671 -2.386,-0.352 -1.973,-0.628C-1.92,-0.663 -1.877,-0.768 -1.887,-0.832C-1.952,-1.259 -2.033,-1.683 -2.106,-2.089M-2.127,-5.435C-2.078,-5.909 -2.025,-6.35 -1.993,-6.792C-1.988,-6.85 -2.068,-6.943 -2.132,-6.973C-2.595,-7.196 -3.306,-6.792 -3.381,-6.33C-2.956,-6.026 -2.556,-5.74 -2.127,-5.435" style="fill:white;fill-rule:nonzero;"/>
            </g>
            <g transform="matrix(4.166667,0,0,4.166667,1332.5175,469.704167)">
                <path d="M0,-1.941C-0.375,-1.25 -0.67,-0.674 -1.002,-0.122C-1.06,-0.026 -1.276,0.008 -1.419,0.011C-2.014,0.021 -2.609,0.005 -3.204,0.005L-71.194,0.005C-71.155,-0.175 -71.147,-0.283 -71.106,-0.377C-71.028,-0.559 -70.887,-0.723 -70.849,-0.911C-70.653,-1.856 -70.043,-1.962 -69.177,-1.961C-46.459,-1.935 -23.742,-1.941 -1.024,-1.941L0,-1.941Z" style="fill:white;fill-rule:nonzero;"/>
            </g>
            <g transform="matrix(4.166667,0,0,4.166667,1020.745833,469.615)">
                <path d="M0,-1.919C-0.318,-1.257 -0.571,-0.695 -0.864,-0.153C-0.917,-0.054 -1.127,0.001 -1.267,0.006C-1.847,0.028 -2.428,0.027 -3.009,0.027C-16.098,0.027 -29.187,0.026 -42.275,0.025C-42.842,0.025 -43.409,0.009 -43.975,0.021C-44.274,0.027 -44.428,-0.063 -44.412,-0.388C-44.392,-0.798 -44.416,-1.212 -44.375,-1.619C-44.364,-1.728 -44.192,-1.831 -44.077,-1.914C-44.03,-1.947 -43.939,-1.919 -43.869,-1.919L0,-1.919Z" style="fill:white;fill-rule:nonzero;"/>
            </g>
            <g transform="matrix(4.166667,0,0,4.166667,726.401667,469.68875)">
                <path d="M0,-1.937C6.995,-1.937 13.99,-1.933 20.986,-1.947C21.41,-1.947 21.581,-1.849 21.532,-1.41C21.499,-1.116 21.509,-0.814 21.534,-0.519C21.567,-0.141 21.446,0.003 21.041,0.002C18.138,-0.009 15.235,0.007 12.333,0.008C1.896,0.01 -8.54,0.009 -18.976,0.008C-19.712,0.008 -20.449,-0.014 -21.185,-0.007C-21.49,-0.004 -21.608,-0.112 -21.617,-0.426C-21.662,-1.936 -21.668,-1.936 -20.178,-1.936C-13.452,-1.936 -6.726,-1.936 0,-1.937" style="fill:white;fill-rule:nonzero;"/>
            </g>
            <g transform="matrix(4.166667,0,0,4.166667,829.260417,469.103333)">
                <path d="M0,-15.43C0.513,-15.964 0.95,-16.504 1.471,-16.946C2.623,-17.923 4,-18.029 5.408,-17.752C7.617,-17.318 9.149,-15.562 9.51,-13.115C9.765,-11.391 9.568,-9.713 8.803,-8.145C7.967,-6.432 6.58,-5.428 4.663,-5.218C2.804,-5.014 1.297,-5.614 0.231,-7.195C0.208,-7.23 0.177,-7.262 0.145,-7.288C0.125,-7.302 0.094,-7.302 0.053,-7.312L0.053,2.599L-2.033,2.599C-2.054,2.411 -2.088,2.26 -2.086,2.109C-2.075,1.246 -2.043,0.383 -2.04,-0.481C-2.014,-6.06 -1.991,-11.64 -1.978,-17.219C-1.977,-17.501 -1.871,-17.55 -1.626,-17.542C-1.188,-17.527 -0.749,-17.526 -0.311,-17.546C-0.052,-17.558 0.005,-17.442 0.002,-17.219C-0.004,-16.627 0,-16.035 0,-15.43M0,-11.862C0.001,-10.132 0.216,-9.053 0.651,-8.082C1.284,-6.671 2.688,-6.095 4.124,-6.308C5.597,-6.526 6.441,-7.575 6.872,-8.907C7.413,-10.584 7.389,-12.307 6.952,-14.013C6.629,-15.277 5.934,-16.219 4.646,-16.681C3.5,-17.093 1.963,-16.67 1.268,-15.669C0.372,-14.382 0.05,-12.923 0,-11.862" style="fill:white;fill-rule:nonzero;"/>
            </g>
            <g transform="matrix(4.166667,0,0,4.166667,636.11875,373.399167)">
                <path d="M0,17.75C0.01,17.549 0.017,17.399 0.024,17.25C0.108,15.426 0.254,13.603 0.261,11.779C0.272,9.217 0.183,6.654 0.131,4.092C0.106,2.875 0.072,1.658 0.035,0.441C0.025,0.147 0.112,0 0.442,0.005C2.665,0.037 4.889,0.021 7.11,0.091C8.237,0.127 9.339,0.392 10.22,1.177C11.35,2.183 11.516,3.516 11.389,4.916C11.209,6.896 10.109,8.192 8.301,8.92C7.056,9.422 5.764,9.708 4.412,9.68C3.902,9.669 3.39,9.709 2.883,9.669C2.464,9.636 2.392,9.805 2.399,10.176C2.442,12.385 2.468,14.593 2.493,16.801C2.503,17.732 2.496,17.717 1.601,17.656C1.238,17.631 0.869,17.684 0.502,17.705C0.353,17.714 0.203,17.732 0,17.75M2.51,1.134C2.477,1.87 2.426,2.576 2.418,3.282C2.399,4.868 2.404,6.455 2.393,8.041C2.389,8.579 2.406,8.655 2.946,8.643C3.835,8.624 4.735,8.608 5.608,8.461C8.636,7.952 9.324,5.217 8.789,3.275C8.521,2.306 7.91,1.612 6.886,1.347C5.456,0.977 4.012,0.918 2.51,1.134" style="fill:white;fill-rule:nonzero;"/>
            </g>
            <g transform="matrix(4.166667,0,0,4.166667,1161.315833,384.645833)">
                <path d="M0,12.23C0.232,13.09 -0.091,13.883 -0.765,14.218C-2.669,15.165 -4.689,15.447 -6.791,15.267C-8.559,15.115 -10.212,14.639 -11.656,13.572C-13.333,12.333 -14.277,10.631 -14.701,8.624C-15.417,5.234 -14.77,2.166 -12.345,-0.379C-10.797,-2.004 -8.773,-2.716 -6.573,-2.963C-4.3,-3.217 -2.121,-2.823 0.001,-2.023C0.274,-1.92 0.335,-1.783 0.248,-1.508C0.116,-1.091 0.025,-0.661 -0.083,-0.236C-0.232,0.347 -0.314,0.378 -0.739,-0.029C-1.927,-1.168 -3.329,-1.897 -4.976,-1.949C-7.994,-2.044 -9.938,-0.997 -11.333,1.626C-12.461,3.746 -12.591,6.015 -12.163,8.358C-11.856,10.031 -11.233,11.533 -9.928,12.632C-7.821,14.407 -5.404,14.742 -2.843,13.796C-2.031,13.496 -1.297,12.983 -0.529,12.563C-0.359,12.47 -0.2,12.357 0,12.23" style="fill:white;fill-rule:nonzero;"/>
            </g>
            <g transform="matrix(4.166667,0,0,4.166667,772.985833,424.45875)">
                <path d="M0,-0.721C-0.108,1.843 -1.065,3.941 -3.5,5.067C-6.39,6.403 -10.446,5.716 -12.148,2.052C-12.572,1.141 -12.604,0.16 -12.576,-0.817C-12.538,-2.137 -12.275,-3.408 -11.472,-4.498C-10.111,-6.345 -8.209,-7.104 -5.982,-7.114C-3.612,-7.124 -1.881,-5.989 -0.719,-3.972C-0.147,-2.979 0.008,-1.87 0,-0.721M-2.327,-0.62C-2.432,-1.403 -2.477,-2.199 -2.656,-2.964C-2.876,-3.903 -3.223,-4.815 -4,-5.462C-5.645,-6.83 -8.513,-6.165 -9.431,-4.16C-10.446,-1.944 -10.532,0.326 -9.538,2.582C-9.178,3.399 -8.631,4.087 -7.781,4.463C-6.053,5.228 -4.034,4.493 -3.146,2.786C-2.592,1.72 -2.345,0.588 -2.327,-0.62" style="fill:white;fill-rule:nonzero;"/>
            </g>
            <g transform="matrix(4.166667,0,0,4.166667,918.4875,406.790417)">
                <path d="M0,7.041C0.225,7.811 -0.016,8.456 -0.592,8.774C-1.911,9.504 -3.283,10.021 -4.833,9.913C-8.582,9.654 -10.535,7.097 -10.629,3.874C-10.661,2.768 -10.45,1.7 -10.06,0.675C-9.25,-1.459 -7.64,-2.562 -5.414,-2.83C-4.16,-2.98 -2.951,-2.815 -1.841,-2.197C-0.193,-1.28 0.418,0.257 0.59,2.032C0.618,2.327 0.575,2.628 0.601,2.923C0.635,3.322 0.503,3.477 0.079,3.461C-1.278,3.411 -2.637,3.376 -3.995,3.375C-5.296,3.374 -6.598,3.431 -7.9,3.444C-8.229,3.448 -8.361,3.549 -8.332,3.889C-8.19,5.534 -7.803,7.081 -6.331,8.056C-4.619,9.19 -2.533,9.048 -0.708,7.568C-0.488,7.39 -0.254,7.229 0,7.041M-8.272,2.362C-7.817,2.362 -7.452,2.364 -7.086,2.362C-5.348,2.356 -3.609,2.348 -1.87,2.347C-1.625,2.346 -1.469,2.269 -1.531,2.005C-1.711,1.237 -1.846,0.451 -2.113,-0.286C-2.388,-1.043 -2.94,-1.611 -3.758,-1.817C-5.254,-2.194 -6.527,-1.707 -7.365,-0.417C-7.894,0.398 -8.187,1.305 -8.272,2.362" style="fill:white;fill-rule:nonzero;"/>
            </g>
            <g transform="matrix(4.166667,0,0,4.166667,1278.525833,402.14)">
                <path d="M0,9.23C-0.734,9.972 -1.509,10.531 -2.458,10.796C-3.997,11.224 -5.448,11.124 -6.643,9.935C-8.092,8.491 -7.589,5.701 -5.691,4.928C-4.747,4.543 -3.703,4.407 -2.709,4.139C-1.922,3.926 -1.137,3.701 -0.366,3.438C-0.207,3.384 -0.025,3.143 -0.008,2.972C0.112,1.805 -0.089,0.743 -1.103,-0.023C-2.208,-0.859 -4.056,-0.758 -5.111,0.232C-5.377,0.482 -5.593,0.785 -5.834,1.062C-5.923,1.164 -6.016,1.263 -6.106,1.363C-6.149,1.358 -6.193,1.353 -6.236,1.349C-6.265,1.143 -6.284,0.936 -6.325,0.733C-6.485,-0.062 -6.108,-0.499 -5.42,-0.851C-3.906,-1.625 -2.359,-1.994 -0.671,-1.558C0.798,-1.178 1.929,0.057 1.987,1.577C2.047,3.129 1.958,4.687 1.966,6.242C1.971,7.143 1.98,8.051 2.092,8.943C2.181,9.655 2.424,9.782 3.143,9.856C3.278,9.87 3.401,10.001 3.53,10.079C3.429,10.227 3.342,10.489 3.224,10.504C2.587,10.587 1.937,10.678 1.301,10.631C0.75,10.59 0.37,10.192 0.173,9.657C0.13,9.539 0.079,9.425 0,9.23M0.038,4.371C-1.01,4.595 -1.986,4.755 -2.931,5.027C-3.448,5.176 -3.95,5.46 -4.388,5.78C-5.234,6.397 -5.367,7.293 -5.154,8.254C-4.951,9.172 -4.292,9.585 -3.421,9.773C-1.968,10.088 -0.908,9.158 -0.121,8.154C-0.045,8.058 -0.049,7.887 -0.043,7.749C-0.012,6.973 0.015,6.196 0.036,5.419C0.045,5.113 0.038,4.806 0.038,4.371" style="fill:white;fill-rule:nonzero;"/>
            </g>
            <g transform="matrix(4.166667,0,0,4.166667,1174.65,435.361667)">
                <path d="M0,-6.672C-0.398,-7.305 -0.218,-8.314 0.316,-8.632C1.921,-9.585 3.624,-10.042 5.474,-9.511C7.188,-9.019 8.156,-7.701 8.141,-5.922C8.124,-3.94 8.079,-1.958 8.066,0.024C8.063,0.416 8.11,0.818 8.2,1.199C8.342,1.792 8.483,1.873 9.088,1.866C9.24,1.864 9.392,1.866 9.536,1.866C9.628,2.447 9.597,2.515 9.1,2.617C8.769,2.685 8.428,2.728 8.091,2.74C7.003,2.779 6.472,2.396 6.123,1.302C5.946,1.446 5.788,1.575 5.63,1.705C4.273,2.819 2.749,3.37 1.01,2.88C-1.581,2.149 -2.067,-0.662 -0.448,-2.458C-0.027,-2.925 0.694,-3.192 1.328,-3.38C2.286,-3.665 3.293,-3.781 4.271,-4.008C4.763,-4.123 5.245,-4.3 5.712,-4.496C5.868,-4.561 6.07,-4.771 6.068,-4.912C6.06,-5.514 6.085,-6.147 5.911,-6.71C5.361,-8.484 3.362,-8.884 1.87,-8.308C1.237,-8.064 0.685,-7.708 0.354,-7.077C0.28,-6.935 0.139,-6.827 0,-6.672M6.071,-3.552C4.804,-3.294 3.548,-3.221 2.419,-2.656C2.023,-2.457 1.644,-2.176 1.337,-1.856C0.472,-0.95 0.731,0.883 1.816,1.493C2.514,1.886 3.284,1.975 4.073,1.756C4.795,1.556 5.285,1.042 5.733,0.493C5.88,0.314 5.981,0.057 6.004,-0.174C6.059,-0.707 6.061,-1.247 6.069,-1.784C6.079,-2.345 6.071,-2.907 6.071,-3.552" style="fill:white;fill-rule:nonzero;"/>
            </g>
            <g transform="matrix(4.166667,0,0,4.166667,1012.426667,480.444167)">
                <path d="M0,-20.253C0.776,-20.253 1.507,-20.265 2.238,-20.242C2.366,-20.238 2.559,-20.112 2.604,-19.997C3.106,-18.691 3.563,-17.367 4.079,-16.067C4.7,-14.502 5.365,-12.955 6.014,-11.401C6.094,-11.212 6.196,-11.032 6.339,-10.744C6.499,-11.104 6.62,-11.352 6.721,-11.609C7.757,-14.24 8.791,-16.872 9.825,-19.505C9.846,-19.557 9.865,-19.611 9.877,-19.666C9.978,-20.143 10.235,-20.351 10.749,-20.265C11.078,-20.21 11.423,-20.255 11.825,-20.255C11.765,-20.061 11.731,-19.888 11.66,-19.732C10.49,-17.14 9.316,-14.551 8.141,-11.961C6.439,-8.213 4.735,-4.467 3.038,-0.717C2.69,0.049 2.702,0.05 1.854,0.05C1.562,0.05 1.27,0.079 0.913,0.098C0.97,-0.047 1,-0.148 1.048,-0.24C2.367,-2.759 3.683,-5.279 5.014,-7.792C5.187,-8.117 5.101,-8.386 4.975,-8.676C3.957,-11.011 2.935,-13.343 1.924,-15.681C1.296,-17.135 0.685,-18.597 0.067,-20.056C0.041,-20.119 0.023,-20.185 0,-20.253" style="fill:white;fill-rule:nonzero;"/>
            </g>
            <g transform="matrix(4.166667,0,0,4.166667,1323.944167,481.262083)">
                <path d="M0,-20.443C0.828,-20.443 1.601,-20.453 2.372,-20.43C2.46,-20.427 2.578,-20.258 2.624,-20.142C3.787,-17.224 4.941,-14.303 6.101,-11.384C6.149,-11.261 6.244,-11.156 6.377,-10.949C6.976,-12.37 7.566,-13.684 8.086,-15.025C8.746,-16.727 9.345,-18.452 9.983,-20.162C10.028,-20.28 10.178,-20.432 10.287,-20.439C10.764,-20.469 11.245,-20.452 11.832,-20.452C11.65,-19.997 11.51,-19.605 11.338,-19.227C9.807,-15.851 8.27,-12.477 6.734,-9.101C5.657,-6.731 4.577,-4.362 3.506,-1.989C3.297,-1.525 3.114,-1.048 2.938,-0.571C2.791,-0.176 2.608,0.026 2.119,-0.109C1.757,-0.209 1.347,-0.129 0.889,-0.129C0.97,-0.297 1.024,-0.42 1.087,-0.538C2.391,-3.019 3.703,-5.495 4.989,-7.985C5.089,-8.178 5.093,-8.493 5.009,-8.696C4.168,-10.737 3.308,-12.77 2.436,-14.798C1.687,-16.54 0.915,-18.272 0.155,-20.009C0.1,-20.134 0.062,-20.266 0,-20.443" style="fill:white;fill-rule:nonzero;"/>
            </g>
            <g transform="matrix(4.166667,0,0,4.166667,1441.1825,469.77875)">
                <path d="M0,-1.959C0,-1.367 -0.001,-0.832 0,-0.297C0.001,0 -0.205,-0.01 -0.412,-0.011C-1.233,-0.013 -2.055,-0.012 -2.876,-0.012L-22.444,-0.012C-22.474,-0.06 -22.504,-0.107 -22.534,-0.155C-22.258,-0.715 -22.008,-1.291 -21.688,-1.825C-21.616,-1.944 -21.302,-1.952 -21.1,-1.953C-16.242,-1.959 -11.385,-1.958 -6.528,-1.958C-4.545,-1.958 -2.563,-1.959 -0.58,-1.959L0,-1.959" style="fill:white;fill-rule:nonzero;"/>
            </g>
            <g transform="matrix(4.166667,0,0,4.166667,781.170833,406.435)">
                <path d="M0,7.114C0.277,7.407 0.447,7.638 0.665,7.807C1.141,8.178 1.604,8.594 2.139,8.855C3.56,9.546 5.452,8.395 5.562,7.029C5.628,6.202 5.345,5.521 4.554,5.149C3.877,4.831 3.164,4.59 2.466,4.318C2.294,4.252 2.12,4.193 1.944,4.138C0.661,3.742 -0.54,2.484 -0.47,1.103C-0.38,-0.659 0.483,-1.974 2.082,-2.477C3.501,-2.922 4.902,-2.8 6.276,-2.244C6.624,-2.103 6.704,-1.917 6.554,-1.56C6.355,-1.088 6.216,-0.591 6.051,-0.104C6.002,-0.1 5.953,-0.095 5.903,-0.091C5.732,-0.324 5.566,-0.559 5.391,-0.789C4.42,-2.056 2.882,-2.16 1.847,-1.029C1.062,-0.174 1.226,1.266 2.237,1.838C2.856,2.188 3.553,2.405 4.222,2.666C4.497,2.774 4.787,2.849 5.072,2.929C7.446,3.591 8.139,6.244 6.606,8.221C5.71,9.376 4.519,9.962 3.053,10.005C1.96,10.036 0.915,9.843 -0.104,9.456C-0.479,9.314 -0.621,9.116 -0.483,8.716C-0.314,8.225 -0.181,7.721 0,7.114" style="fill:white;fill-rule:nonzero;"/>
            </g>
            <g transform="matrix(4.166667,0,0,4.166667,1379.231667,407.075833)">
                <path d="M0,6.995C0.174,7.158 0.286,7.276 0.411,7.377C0.926,7.792 1.4,8.282 1.971,8.598C3.392,9.386 5.211,8.542 5.558,6.992C5.748,6.146 5.385,5.331 4.589,4.991C3.692,4.607 2.764,4.299 1.857,3.936C0.16,3.256 -0.534,2.183 -0.402,0.478C-0.284,-1.054 0.836,-2.336 2.395,-2.725C3.768,-3.068 5.092,-2.881 6.377,-2.336C6.49,-2.288 6.649,-2.098 6.627,-2.021C6.458,-1.431 6.25,-0.852 6.017,-0.163C5.752,-0.5 5.568,-0.742 5.376,-0.979C4.788,-1.703 4.061,-2.068 3.103,-1.896C2.264,-1.745 1.559,-1.064 1.407,-0.211C1.255,0.639 1.583,1.398 2.406,1.79C3.117,2.128 3.896,2.318 4.627,2.618C5.235,2.867 5.911,3.07 6.392,3.485C7.596,4.524 7.761,6.316 6.897,7.658C5.724,9.479 4,10.063 1.942,9.798C1.233,9.707 0.537,9.486 -0.153,9.284C-0.609,9.151 -0.635,9.024 -0.481,8.557C-0.32,8.065 -0.176,7.568 0,6.995" style="fill:white;fill-rule:nonzero;"/>
            </g>
            <g transform="matrix(4.166667,0,0,4.166667,1304.669167,447.020833)">
                <path d="M0,-19.281L2.074,-19.281L2.074,0L-0.14,0C-0.094,-6.382 -0.047,-12.811 0,-19.281" style="fill:white;fill-rule:nonzero;"/>
            </g>
            <g transform="matrix(4.166667,0,0,4.166667,1223.805833,433.104167)">
                <path d="M0,-8.728C0,-9.533 0.016,-10.28 -0.007,-11.027C-0.018,-11.36 0.084,-11.552 0.402,-11.668C0.995,-11.887 1.577,-12.133 2.277,-12.412C2.277,-12.072 2.29,-11.828 2.274,-11.585C2.226,-10.794 2.164,-10.005 2.113,-9.214C2.076,-8.623 2.105,-8.61 2.676,-8.649C3.268,-8.688 3.863,-8.686 4.455,-8.728C4.787,-8.751 4.891,-8.616 4.848,-8.309C4.834,-8.212 4.835,-8.11 4.845,-8.012C4.875,-7.715 4.743,-7.611 4.45,-7.617C3.813,-7.631 3.175,-7.608 2.538,-7.625C2.18,-7.634 2.037,-7.516 2.039,-7.138C2.051,-4.645 2.034,-2.153 2.055,0.34C2.059,0.711 2.168,1.099 2.303,1.45C2.679,2.432 3.339,2.784 4.377,2.609C4.502,2.588 4.629,2.539 4.753,2.548C4.896,2.558 5.036,2.618 5.178,2.657C5.094,2.846 5.048,3.169 4.921,3.205C3.776,3.525 2.605,3.684 1.464,3.213C0.573,2.844 0.099,2.084 0.023,1.161C-0.068,0.036 -0.058,-1.1 -0.043,-2.23C-0.023,-3.9 0.036,-5.569 0.086,-7.239C0.094,-7.509 0.005,-7.633 -0.277,-7.619C-0.56,-7.606 -0.845,-7.638 -1.126,-7.614C-1.485,-7.584 -1.672,-7.693 -1.614,-8.082C-1.606,-8.137 -1.608,-8.196 -1.617,-8.251C-1.671,-8.62 -1.528,-8.764 -1.146,-8.735C-0.756,-8.705 -0.361,-8.728 0,-8.728" style="fill:white;fill-rule:nonzero;"/>
            </g>
            <g transform="matrix(4.166667,0,0,4.166667,1429.50625,447.80125)">
                <path d="M0,-15.928C0,-15.665 0.008,-15.487 -0.001,-15.31C-0.048,-14.449 -0.1,-13.587 -0.15,-12.726C-0.183,-12.174 -0.137,-12.14 0.394,-12.177C0.986,-12.218 1.581,-12.223 2.173,-12.256C2.457,-12.272 2.607,-12.181 2.574,-11.874C2.563,-11.776 2.564,-11.675 2.578,-11.577C2.625,-11.23 2.455,-11.136 2.135,-11.144C1.499,-11.16 0.861,-11.135 0.224,-11.155C-0.114,-11.165 -0.247,-11.068 -0.244,-10.703C-0.229,-8.339 -0.256,-5.974 -0.223,-3.61C-0.214,-3.055 -0.081,-2.486 0.089,-1.953C0.344,-1.152 1.007,-0.781 1.846,-0.878C2.057,-0.903 2.266,-0.94 2.476,-0.968C2.645,-0.99 2.861,-1.122 2.908,-0.82C2.947,-0.572 2.88,-0.339 2.6,-0.302C1.848,-0.202 1.079,0 0.34,-0.074C-1.438,-0.251 -2.112,-0.959 -2.293,-2.758C-2.383,-3.653 -2.316,-4.564 -2.302,-5.468C-2.274,-7.264 -2.229,-9.06 -2.213,-10.857C-2.212,-10.952 -2.41,-11.117 -2.529,-11.132C-2.85,-11.172 -3.179,-11.16 -3.504,-11.146C-3.789,-11.132 -3.935,-11.224 -3.904,-11.531C-3.891,-11.671 -3.943,-11.831 -3.892,-11.951C-3.84,-12.073 -3.706,-12.231 -3.593,-12.244C-3.257,-12.282 -2.914,-12.272 -2.575,-12.25C-2.28,-12.231 -2.172,-12.33 -2.191,-12.635C-2.234,-13.312 -2.237,-13.992 -2.281,-14.67C-2.299,-14.959 -2.194,-15.112 -1.928,-15.207C-1.317,-15.424 -0.713,-15.66 0,-15.928" style="fill:white;fill-rule:nonzero;"/>
            </g>
            <g transform="matrix(4.166667,0,0,4.166667,1000.160833,448.00875)">
                <path d="M0,-15.944C0,-15.627 0.009,-15.391 -0.001,-15.155C-0.041,-14.293 -0.082,-13.432 -0.134,-12.57C-0.157,-12.184 0.087,-12.218 0.34,-12.23C0.961,-12.258 1.583,-12.272 2.204,-12.306C2.721,-12.335 2.563,-11.953 2.589,-11.691C2.615,-11.421 2.607,-11.181 2.213,-11.193C1.577,-11.213 0.938,-11.189 0.302,-11.2C-0.06,-11.206 -0.227,-11.101 -0.224,-10.69C-0.206,-8.382 -0.234,-6.074 -0.202,-3.766C-0.194,-3.195 -0.069,-2.614 0.086,-2.061C0.314,-1.251 0.901,-0.877 1.748,-0.917C1.973,-0.928 2.195,-0.983 2.42,-1.003C2.604,-1.02 2.858,-1.219 2.93,-0.866C2.992,-0.56 2.832,-0.398 2.537,-0.321C1.607,-0.076 0.682,0 -0.273,-0.208C-1.308,-0.433 -1.894,-1.087 -2.165,-2.056C-2.274,-2.446 -2.329,-2.864 -2.332,-3.27C-2.337,-4.004 -2.279,-4.738 -2.259,-5.473C-2.225,-6.675 -2.196,-7.878 -2.174,-9.08C-2.164,-9.646 -2.188,-10.213 -2.167,-10.779C-2.156,-11.087 -2.247,-11.225 -2.571,-11.204C-2.881,-11.184 -3.194,-11.209 -3.505,-11.195C-3.777,-11.183 -3.9,-11.291 -3.879,-11.567C-3.87,-11.679 -3.87,-11.795 -3.884,-11.906C-3.919,-12.198 -3.805,-12.325 -3.505,-12.311C-3.18,-12.296 -2.854,-12.318 -2.528,-12.303C-2.25,-12.289 -2.154,-12.393 -2.171,-12.675C-2.211,-13.352 -2.221,-14.031 -2.256,-14.709C-2.269,-14.968 -2.195,-15.13 -1.932,-15.223C-1.308,-15.441 -0.692,-15.684 0,-15.944" style="fill:white;fill-rule:nonzero;"/>
            </g>
            <g transform="matrix(4.166667,0,0,4.166667,938.970833,436.847917)">
                <path d="M0,-7.582C0.194,-7.828 0.396,-8.067 0.58,-8.32C1.395,-9.445 2.511,-9.987 3.883,-10.015C3.969,-10.017 4.138,-9.846 4.135,-9.76C4.114,-9.139 4.069,-8.519 4.012,-7.9C3.974,-7.492 3.708,-7.646 3.521,-7.751C3.03,-8.029 2.531,-8.116 1.973,-7.976C1.217,-7.787 0.76,-7.284 0.441,-6.62C0.034,-5.77 -0.066,-4.854 -0.061,-3.931C-0.051,-1.993 -0.02,-0.054 0.03,1.883C0.04,2.284 -0.072,2.396 -0.468,2.373C-0.931,2.346 -1.4,2.39 -1.865,2.42C-2.093,2.435 -2.157,2.36 -2.152,2.132C-2.105,0.01 -2.049,-2.112 -2.039,-4.234C-2.031,-5.889 -2.089,-7.544 -2.109,-9.199C-2.116,-9.799 -2.104,-9.798 -1.524,-9.793C-1.114,-9.789 -0.703,-9.773 -0.293,-9.791C-0.045,-9.802 0.041,-9.712 0.021,-9.475C-0.025,-8.941 -0.063,-8.405 -0.103,-7.87C-0.109,-7.792 -0.104,-7.714 -0.104,-7.636C-0.069,-7.618 -0.035,-7.6 0,-7.582" style="fill:white;fill-rule:nonzero;"/>
            </g>
            <g transform="matrix(4.166667,0,0,4.166667,692.265,445.98625)">
                <path d="M0,-11.979C0.639,-11.979 1.229,-11.969 1.82,-11.984C2.057,-11.989 2.12,-11.883 2.104,-11.679C2.065,-11.143 2.026,-10.608 1.989,-10.072C1.982,-9.978 1.988,-9.882 1.988,-9.757C2.596,-10.38 3.14,-11.016 3.767,-11.558C4.432,-12.133 5.297,-12.158 6.167,-12.219C6.167,-11.776 6.172,-11.346 6.164,-10.916C6.16,-10.733 6.117,-10.551 6.107,-10.368C6.074,-9.779 6.015,-9.768 5.484,-9.993C5.147,-10.135 4.756,-10.233 4.395,-10.216C3.504,-10.173 2.922,-9.642 2.546,-8.86C2.124,-7.982 2.028,-7.037 2.032,-6.087C2.039,-4.149 2.075,-2.21 2.119,-0.272C2.127,0.083 2.031,0.196 1.669,0.18C1.191,0.158 0.709,0.197 0.229,0.226C0.008,0.24 -0.063,0.183 -0.058,-0.056C-0.012,-2.39 0.038,-4.724 0.049,-7.059C0.057,-8.558 0.002,-10.057 -0.022,-11.557C-0.025,-11.707 -0.007,-11.857 0,-11.979" style="fill:white;fill-rule:nonzero;"/>
            </g>
            <g transform="matrix(4.166667,0,0,4.166667,965.289167,396.140833)">
                <path d="M0,12.139C0,12.007 -0.003,11.856 0,11.706C0.05,9.259 0.125,6.813 0.142,4.366C0.151,3.023 0.073,1.679 0.014,0.336C0,0.03 0.079,-0.06 0.387,-0.039C0.867,-0.006 1.352,0.009 1.83,-0.027C2.186,-0.054 2.285,0.032 2.281,0.401C2.246,3.5 2.229,6.6 2.219,9.7C2.217,10.365 2.25,11.03 2.29,11.694C2.31,12.046 2.254,12.199 1.829,12.154C1.245,12.093 0.649,12.139 0,12.139" style="fill:white;fill-rule:nonzero;"/>
            </g>
            <g transform="matrix(4.166667,0,0,4.166667,1289.784583,521.908333)">
                <path d="M0,-5.553C-0.007,-5.456 -0.018,-5.359 -0.022,-5.261C-0.03,-5.034 -0.126,-4.974 -0.353,-5.033C-1.047,-5.217 -1.461,-5.003 -1.614,-4.306C-1.716,-3.843 -1.708,-3.353 -1.721,-2.875C-1.737,-2.28 -1.731,-1.685 -1.723,-1.091C-1.719,-0.779 -1.823,-0.622 -2.167,-0.629C-2.499,-0.636 -2.655,-0.733 -2.653,-1.096C-2.644,-2.569 -2.642,-4.041 -2.667,-5.513C-2.677,-6.084 -2.275,-5.864 -2.017,-5.898C-1.673,-5.943 -1.729,-5.672 -1.732,-5.467C-1.734,-5.36 -1.766,-5.252 -1.712,-5.092C-1.593,-5.212 -1.465,-5.325 -1.356,-5.454C-1.053,-5.815 -0.668,-5.994 -0.201,-5.973C0.152,-5.957 0.511,-5.951 0.851,-5.871C1.002,-5.836 1.169,-5.653 1.233,-5.498C1.656,-4.479 2.051,-3.449 2.459,-2.424C2.515,-2.286 2.595,-2.158 2.726,-1.904C2.968,-2.444 3.177,-2.867 3.348,-3.305C3.621,-4.004 3.896,-4.703 4.114,-5.419C4.235,-5.816 4.447,-5.943 4.824,-5.888C4.936,-5.871 5.048,-5.855 5.159,-5.834C5.644,-5.744 5.664,-5.76 5.672,-6.261C5.673,-6.318 5.674,-6.374 5.674,-6.431C5.676,-7.126 5.917,-7.342 6.716,-7.31C6.682,-6.989 6.646,-6.671 6.614,-6.354C6.564,-5.856 6.602,-5.815 7.091,-5.812C7.19,-5.811 7.29,-5.808 7.388,-5.813C7.699,-5.83 7.848,-5.709 7.751,-5.306C7.479,-5.306 7.187,-5.325 6.9,-5.296C6.795,-5.286 6.619,-5.164 6.617,-5.088C6.583,-4.043 6.522,-2.994 6.578,-1.952C6.622,-1.104 6.813,-0.998 7.669,-0.979C7.72,-0.978 7.77,-0.951 7.854,-0.926C7.814,-0.845 7.801,-0.767 7.755,-0.733C7.063,-0.218 5.791,-0.714 5.683,-1.566C5.622,-2.052 5.659,-2.551 5.659,-3.044C5.659,-3.653 5.67,-4.261 5.669,-4.87C5.669,-5.054 5.751,-5.303 5.434,-5.314C5.16,-5.322 4.862,-5.485 4.686,-5.068C4.129,-3.751 3.535,-2.452 2.962,-1.143C2.6,-0.314 2.244,0.518 1.896,1.354C1.714,1.789 1.402,1.495 1.036,1.561C1.252,1.148 1.396,0.799 1.604,0.493C2.11,-0.252 2.229,-0.941 1.762,-1.812C1.163,-2.928 0.752,-4.145 0.257,-5.317C0.217,-5.413 0.146,-5.496 0.09,-5.585C0.061,-5.575 0.03,-5.564 0,-5.553" style="fill:white;fill-rule:nonzero;"/>
            </g>
            <g transform="matrix(4.166667,0,0,4.166667,961.108333,517.1725)">
                <path d="M0,-4.175C0.472,-4.583 0.996,-4.869 1.658,-4.852C2.358,-4.834 2.754,-4.325 3.26,-3.923C3.625,-4.641 4.257,-4.811 4.941,-4.838C5.893,-4.877 6.574,-4.241 6.587,-3.288C6.596,-2.609 6.53,-1.93 6.525,-1.251C6.522,-0.815 6.557,-0.377 6.597,0.058C6.622,0.327 6.579,0.527 6.258,0.493C5.995,0.465 5.572,0.702 5.586,0.142C5.609,-0.777 5.643,-1.697 5.66,-2.616C5.665,-2.855 5.639,-3.097 5.605,-3.334C5.523,-3.911 5.203,-4.227 4.683,-4.261C4.042,-4.304 3.497,-3.975 3.372,-3.429C3.287,-3.059 3.224,-2.677 3.213,-2.299C3.189,-1.478 3.197,-0.657 3.209,0.165C3.213,0.426 3.123,0.539 2.865,0.499C2.632,0.464 2.267,0.645 2.279,0.18C2.296,-0.456 2.357,-1.092 2.351,-1.727C2.345,-2.248 2.259,-2.768 2.225,-3.29C2.191,-3.798 1.927,-4.089 1.442,-4.214C0.955,-4.34 0.587,-4.15 0.275,-3.799C-0.157,-3.315 -0.154,-2.699 -0.179,-2.114C-0.21,-1.394 -0.19,-0.669 -0.142,0.05C-0.112,0.498 -0.358,0.482 -0.666,0.488C-0.963,0.494 -1.141,0.462 -1.128,0.081C-1.083,-1.347 -1.074,-2.776 -1.034,-4.204C-1.028,-4.404 -1.199,-4.736 -0.785,-4.757C-0.452,-4.773 -0.064,-4.845 -0.091,-4.299C-0.092,-4.279 -0.061,-4.256 0,-4.175" style="fill:white;fill-rule:nonzero;"/>
            </g>
            <g transform="matrix(4.166667,0,0,4.166667,1384.240833,508.889167)">
                <path d="M0,2.033C-0.472,0.957 -0.467,0.916 0.386,0.182C0.22,0.096 0.048,0.042 -0.079,-0.065C-0.56,-0.472 -0.676,-0.997 -0.542,-1.6C-0.407,-2.203 -0.058,-2.612 0.556,-2.687C1.238,-2.771 1.93,-2.787 2.618,-2.812C2.942,-2.824 3.269,-2.798 3.592,-2.77C3.745,-2.756 3.894,-2.696 4.094,-2.645C3.769,-2.154 3.411,-2.48 3.048,-2.462C3.183,-2.203 3.307,-1.963 3.432,-1.725C3.826,-0.976 3.267,0.02 2.602,0.237C2.232,0.357 1.832,0.388 1.443,0.446C1.208,0.481 0.952,0.448 0.736,0.528C0.601,0.578 0.457,0.775 0.443,0.918C0.432,1.028 0.596,1.222 0.721,1.265C0.97,1.349 1.245,1.372 1.511,1.39C1.99,1.423 2.477,1.393 2.949,1.464C3.772,1.587 4.229,2.326 4.017,3.128C3.74,4.169 2.932,4.562 1.98,4.738C1.33,4.857 0.679,4.812 0.065,4.535C-0.688,4.195 -1.02,3.334 -0.634,2.611C-0.514,2.387 -0.239,2.244 0,2.033M1.479,4.371C1.493,4.407 1.506,4.444 1.52,4.48C1.932,4.329 2.373,4.23 2.746,4.014C3.137,3.789 3.213,3.358 3.139,2.927C3.067,2.506 2.799,2.207 2.38,2.188C1.798,2.162 1.205,2.185 0.629,2.27C0.226,2.329 -0.012,2.747 -0.002,3.161C0.017,3.996 0.485,4.378 1.479,4.371M2.587,-1.211C2.566,-1.872 2.327,-2.287 1.857,-2.441C1.419,-2.585 0.836,-2.424 0.584,-2.09C0.253,-1.651 0.231,-0.812 0.53,-0.359C0.785,0.027 1.151,0.178 1.589,0.117C2.028,0.056 2.346,-0.193 2.476,-0.632C2.531,-0.82 2.551,-1.018 2.587,-1.211" style="fill:white;fill-rule:nonzero;"/>
            </g>
            <g transform="matrix(4.166667,0,0,4.166667,1143.935,508.924583)">
                <path d="M0,1.952C-0.551,1.175 -0.537,0.927 0.208,0.355C0.074,0.199 -0.051,0.038 -0.193,-0.107C-1.052,-0.99 -0.676,-2.47 0.532,-2.688C1.38,-2.842 2.269,-2.774 3.139,-2.8C3.323,-2.806 3.509,-2.807 3.69,-2.779C3.782,-2.765 3.863,-2.683 3.949,-2.632C3.859,-2.541 3.771,-2.375 3.68,-2.374C3.465,-2.371 3.25,-2.447 2.947,-2.508C3.073,-2.299 3.163,-2.149 3.253,-1.999C3.844,-1.019 3.388,0.091 2.269,0.335C1.9,0.416 1.511,0.412 1.131,0.43C0.673,0.453 0.276,0.664 0.335,0.902C0.432,1.287 0.785,1.35 1.111,1.372C1.548,1.401 1.99,1.354 2.426,1.393C2.758,1.423 3.113,1.474 3.403,1.622C4.072,1.965 4.221,2.794 3.813,3.554C3.367,4.382 2.588,4.688 1.738,4.753C1.191,4.794 0.603,4.704 0.079,4.533C-0.639,4.299 -1.001,3.559 -0.755,2.853C-0.642,2.526 -0.289,2.283 0,1.952M1.469,4.361C1.483,4.397 1.497,4.434 1.511,4.471C1.91,4.319 2.336,4.215 2.701,4.004C3.116,3.764 3.175,3.325 3.085,2.878C3,2.455 2.734,2.183 2.307,2.157C1.789,2.125 1.261,2.11 0.748,2.168C0.221,2.228 -0.055,2.624 -0.044,3.151C-0.028,3.938 0.495,4.356 1.469,4.361M2.536,-1.254C2.543,-1.97 2.102,-2.518 1.506,-2.531C0.844,-2.546 0.265,-1.945 0.256,-1.233C0.248,-0.46 0.716,0.112 1.362,0.118C2.061,0.125 2.527,-0.42 2.536,-1.254" style="fill:white;fill-rule:nonzero;"/>
            </g>
            <g transform="matrix(4.166667,0,0,4.166667,816.945417,508.857083)">
                <path d="M0,2.119C-0.454,1.281 -0.768,1.126 0.211,0.231C0.062,0.136 -0.088,0.055 -0.223,-0.048C-0.744,-0.445 -0.805,-0.994 -0.685,-1.58C-0.562,-2.177 -0.196,-2.568 0.413,-2.677C0.87,-2.76 1.334,-2.84 1.796,-2.844C2.483,-2.849 3.17,-2.786 3.858,-2.752C3.821,-2.273 3.821,-2.273 2.899,-2.506C3.043,-2.239 3.158,-2.011 3.286,-1.792C3.799,-0.92 3.088,0.143 2.341,0.297C1.942,0.379 1.533,0.425 1.125,0.45C0.633,0.48 0.219,0.664 0.272,0.905C0.368,1.339 0.765,1.372 1.115,1.393C1.58,1.423 2.05,1.383 2.516,1.414C3.386,1.473 3.963,1.986 3.964,2.725C3.965,3.414 3.624,3.962 3.045,4.308C2.091,4.878 1.066,4.968 0.024,4.571C-0.616,4.328 -0.884,3.882 -0.884,3.23C-0.885,2.622 -0.59,2.253 0,2.119M1.375,4.38C1.388,4.416 1.401,4.451 1.414,4.487C1.829,4.339 2.271,4.241 2.651,4.03C3.143,3.757 3.095,3.25 3.009,2.778C2.93,2.347 2.604,2.157 2.21,2.151C1.665,2.142 1.115,2.17 0.573,2.236C0.178,2.285 -0.082,2.64 -0.108,3.038C-0.166,3.923 0.337,4.378 1.375,4.38M2.478,-1.272C2.473,-1.983 2.02,-2.511 1.412,-2.513C0.732,-2.517 0.207,-1.914 0.214,-1.138C0.221,-0.386 0.692,0.152 1.336,0.141C2.008,0.129 2.485,-0.46 2.478,-1.272" style="fill:white;fill-rule:nonzero;"/>
            </g>
            <g transform="matrix(4.166667,0,0,4.166667,930.680417,518.695)">
                <path d="M0,-5.116C-0.257,-4.552 -0.48,-4.097 -0.675,-3.63C-1.143,-2.507 -1.587,-1.374 -2.071,-0.258C-2.147,-0.081 -2.362,0.104 -2.543,0.142C-2.646,0.163 -2.873,-0.083 -2.936,-0.25C-3.277,-1.164 -3.582,-2.092 -3.907,-3.012C-3.985,-3.236 -4.089,-3.45 -4.222,-3.763C-4.375,-3.393 -4.498,-3.116 -4.603,-2.832C-4.909,-2.01 -5.191,-1.179 -5.521,-0.367C-5.605,-0.159 -5.834,-0.009 -5.997,0.167C-6.156,-0.012 -6.382,-0.164 -6.465,-0.373C-7.044,-1.848 -7.594,-3.333 -8.152,-4.816C-8.18,-4.892 -8.191,-4.973 -8.222,-5.1C-7.883,-5.1 -7.576,-5.128 -7.28,-5.083C-7.181,-5.068 -7.078,-4.876 -7.033,-4.745C-6.69,-3.741 -6.366,-2.732 -6.023,-1.728C-5.974,-1.581 -5.859,-1.456 -5.726,-1.243C-5.336,-2.319 -4.981,-3.298 -4.627,-4.277C-4.604,-4.343 -4.587,-4.413 -4.563,-4.479C-4.443,-4.801 -4.33,-5.177 -3.911,-5.157C-3.491,-5.136 -3.545,-4.712 -3.449,-4.437C-3.089,-3.409 -2.743,-2.377 -2.389,-1.347C-2.372,-1.298 -2.325,-1.259 -2.242,-1.151C-2.105,-1.514 -1.988,-1.826 -1.872,-2.138C-1.54,-3.026 -1.194,-3.909 -0.884,-4.804C-0.717,-5.283 -0.384,-5.074 0,-5.116" style="fill:white;fill-rule:nonzero;"/>
            </g>
            <g transform="matrix(4.166667,0,0,4.166667,1077.974583,504.3175)">
                <path d="M0,-0.994C0.446,-1.609 1.058,-1.784 1.754,-1.767C2.738,-1.742 3.32,-1.267 3.379,-0.292C3.45,0.894 3.444,2.083 3.458,3.271C3.464,3.763 3.072,3.554 2.831,3.592C2.575,3.632 2.429,3.541 2.441,3.247C2.479,2.342 2.516,1.437 2.526,0.532C2.532,-0.021 2.399,-0.534 1.922,-0.897C1.243,-1.412 0.269,-1.099 0.066,-0.27C-0.03,0.126 -0.077,0.54 -0.091,0.947C-0.118,1.697 -0.118,2.449 -0.102,3.199C-0.094,3.585 -0.324,3.583 -0.598,3.592C-0.884,3.601 -1.057,3.546 -1.043,3.201C-1.004,2.183 -0.962,1.164 -0.965,0.145C-0.969,-1.327 -1,-2.799 -1.044,-4.27C-1.056,-4.657 -0.917,-4.757 -0.553,-4.745C-0.21,-4.734 0.015,-4.71 -0.011,-4.267C-0.066,-3.336 -0.081,-2.401 -0.107,-1.468C-0.111,-1.336 -0.09,-1.203 -0.081,-1.07C-0.054,-1.045 -0.027,-1.019 0,-0.994" style="fill:white;fill-rule:nonzero;"/>
            </g>
            <g transform="matrix(4.166667,0,0,4.166667,1328.66,502.769167)">
                <path d="M0,-0.621C0.526,-1.248 1.156,-1.425 1.866,-1.394C2.687,-1.358 3.333,-0.787 3.387,0.033C3.429,0.681 3.387,1.333 3.4,1.983C3.409,2.463 3.437,2.943 3.477,3.422C3.506,3.784 3.42,3.969 2.998,3.968C2.614,3.967 2.423,3.903 2.453,3.462C2.508,2.643 2.544,1.822 2.538,1.002C2.534,0.417 2.436,-0.161 1.908,-0.55C1.249,-1.035 0.28,-0.747 0.109,0.051C-0.031,0.708 -0.043,1.394 -0.081,2.069C-0.11,2.578 -0.104,3.089 -0.089,3.598C-0.079,3.932 -0.268,3.964 -0.523,3.954C-0.77,3.944 -1.026,3.967 -1.018,3.598C-0.993,2.495 -0.955,1.392 -0.956,0.288C-0.958,-0.857 -1.001,-2.003 -1.023,-3.148C-1.029,-3.446 -1.034,-3.744 -1.019,-4.041C-0.99,-4.59 -0.565,-4.318 -0.31,-4.353C-0.008,-4.394 -0.001,-4.188 -0.012,-3.937C-0.053,-2.92 -0.068,-1.902 -0.088,-0.885C-0.09,-0.835 -0.056,-0.784 0,-0.621" style="fill:white;fill-rule:nonzero;"/>
            </g>
            <g transform="matrix(4.166667,0,0,4.166667,953.592917,508.207917)">
                <path d="M0,0.035C0.183,1.281 -1.124,2.708 -2.515,2.757C-4.213,2.818 -5.411,1.721 -5.432,0.006C-5.452,-1.563 -4.219,-2.783 -2.615,-2.774C-1.151,-2.766 0.081,-1.706 0,0.035M-0.998,-0.247C-1.104,-0.587 -1.199,-1.095 -1.417,-1.543C-1.907,-2.555 -3.278,-2.617 -3.861,-1.649C-4.489,-0.606 -4.504,0.512 -3.983,1.598C-3.575,2.449 -2.423,2.573 -1.764,1.898C-1.222,1.344 -1.103,0.641 -0.998,-0.247" style="fill:white;fill-rule:nonzero;"/>
            </g>
            <g transform="matrix(4.166667,0,0,4.166667,795.823333,515.92375)">
                <path d="M0,-3.742C0.637,-4.569 1.394,-4.648 2.214,-4.473C2.849,-4.337 3.219,-3.924 3.347,-3.297C3.392,-3.076 3.423,-2.849 3.426,-2.624C3.438,-1.619 3.425,-0.614 3.445,0.39C3.452,0.733 3.323,0.849 2.997,0.817C2.716,0.79 2.383,0.906 2.409,0.402C2.458,-0.557 2.465,-1.519 2.493,-2.479C2.506,-2.917 2.335,-3.278 2.036,-3.584C1.396,-4.239 0.389,-4.031 0.105,-3.159C-0.029,-2.748 -0.104,-2.305 -0.125,-1.873C-0.161,-1.125 -0.142,-0.374 -0.132,0.376C-0.128,0.713 -0.282,0.819 -0.602,0.808C-0.909,0.797 -1.079,0.71 -1.065,0.363C-1.029,-0.527 -0.999,-1.418 -0.995,-2.309C-0.993,-2.902 -1.053,-3.496 -1.053,-4.089C-1.053,-4.211 -0.915,-4.436 -0.841,-4.435C-0.604,-4.434 -0.279,-4.612 -0.152,-4.228C-0.11,-4.103 -0.073,-3.976 0,-3.742" style="fill:white;fill-rule:nonzero;"/>
            </g>
            <g transform="matrix(4.166667,0,0,4.166667,1123.234167,516.520417)">
                <path d="M0,-3.882C0.377,-4.549 0.984,-4.683 1.644,-4.692C2.596,-4.704 3.252,-4.209 3.322,-3.258C3.41,-2.046 3.394,-0.825 3.391,0.392C3.389,0.843 2.999,0.628 2.769,0.666C2.514,0.707 2.364,0.616 2.374,0.323C2.407,-0.653 2.462,-1.63 2.438,-2.604C2.43,-2.946 2.272,-3.317 2.084,-3.612C1.835,-4.003 1.439,-4.192 0.944,-4.077C0.427,-3.957 0.068,-3.682 -0.012,-3.132C-0.075,-2.7 -0.148,-2.265 -0.165,-1.83C-0.191,-1.179 -0.177,-0.527 -0.171,0.125C-0.168,0.447 -0.225,0.675 -0.633,0.665C-1.011,0.656 -1.121,0.489 -1.1,0.134C-1.064,-0.474 -1.043,-1.083 -1.046,-1.692C-1.051,-2.526 -1.078,-3.36 -1.108,-4.194C-1.117,-4.443 -1.08,-4.622 -0.777,-4.601C-0.53,-4.585 -0.205,-4.725 -0.168,-4.289C-0.16,-4.182 -0.128,-4.077 -0.107,-3.971C-0.071,-3.941 -0.036,-3.912 0,-3.882" style="fill:white;fill-rule:nonzero;"/>
            </g>
            <g transform="matrix(4.166667,0,0,4.166667,1363.2,516.35875)">
                <path d="M0,-3.909C0.167,-4.032 0.285,-4.106 0.389,-4.197C0.954,-4.691 1.617,-4.754 2.303,-4.582C3.079,-4.387 3.481,-3.839 3.503,-2.94C3.53,-1.851 3.505,-0.761 3.521,0.328C3.527,0.78 3.215,0.671 2.965,0.687C2.695,0.704 2.49,0.663 2.503,0.309C2.538,-0.623 2.593,-1.557 2.562,-2.488C2.548,-2.873 2.397,-3.291 2.193,-3.622C1.921,-4.062 1.449,-4.158 0.951,-4.012C0.418,-3.857 0.09,-3.48 0.053,-2.945C-0.02,-1.917 -0.033,-0.885 -0.062,0.146C-0.077,0.645 -0.319,0.845 -0.786,0.672C-0.886,0.635 -0.974,0.412 -0.973,0.276C-0.962,-0.699 -0.914,-1.674 -0.904,-2.65C-0.899,-3.129 -0.959,-3.609 -0.974,-4.089C-0.981,-4.297 -1.069,-4.584 -0.69,-4.569C-0.397,-4.557 -0.018,-4.663 -0.047,-4.148C-0.05,-4.095 -0.027,-4.041 0,-3.909" style="fill:white;fill-rule:nonzero;"/>
            </g>
            <g transform="matrix(4.166667,0,0,4.166667,749.363333,501.470417)">
                <path d="M0,3.268C-0.076,3.467 -0.092,3.761 -0.236,3.851C-1.389,4.569 -2.807,4.648 -3.88,3.654C-4.743,2.856 -4.9,1.116 -4.233,-0.017C-3.678,-0.962 -2.395,-1.38 -1.208,-1.016C-0.136,-0.687 0.283,0.54 0.202,1.438C0.195,1.514 -0.023,1.629 -0.142,1.627C-0.805,1.612 -1.467,1.547 -2.129,1.539C-2.522,1.534 -2.916,1.611 -3.311,1.633C-3.564,1.647 -3.634,1.787 -3.592,1.999C-3.449,2.726 -3.229,3.423 -2.46,3.721C-1.766,3.991 -1.101,3.9 -0.509,3.417C-0.401,3.33 -0.276,3.263 -0.16,3.187C-0.106,3.214 -0.053,3.241 0,3.268M-3.555,1.126C-2.702,1.126 -1.847,1.131 -0.993,1.117C-0.923,1.116 -0.809,0.989 -0.793,0.907C-0.651,0.145 -1.307,-0.66 -2.068,-0.676C-2.83,-0.693 -3.553,0.154 -3.555,1.126" style="fill:white;fill-rule:nonzero;"/>
            </g>
            <g transform="matrix(4.166667,0,0,4.166667,1018.725417,515.944583)">
                <path d="M0,-3.749C0.197,-3.915 0.33,-4.038 0.474,-4.145C1.119,-4.627 1.852,-4.702 2.563,-4.407C3.216,-4.136 3.507,-3.561 3.494,-2.832C3.476,-1.771 3.495,-0.71 3.482,0.351C3.481,0.489 3.412,0.726 3.335,0.743C3.096,0.795 2.835,0.781 2.588,0.749C2.554,0.744 2.536,0.501 2.534,0.367C2.514,-0.746 2.541,-1.863 2.466,-2.973C2.425,-3.585 1.97,-3.939 1.433,-3.966C0.812,-3.997 0.273,-3.645 0.122,-3.045C-0.163,-1.921 -0.131,-0.775 -0.027,0.368C0.001,0.676 -0.083,0.81 -0.379,0.772C-0.63,0.74 -1.03,0.953 -1.019,0.422C-0.987,-1.075 -0.962,-2.573 -0.922,-4.071C-0.919,-4.201 -0.837,-4.43 -0.767,-4.44C-0.539,-4.472 -0.272,-4.478 -0.074,-4.382C0.014,-4.34 -0.027,-4.031 0,-3.749" style="fill:white;fill-rule:nonzero;"/>
            </g>
            <g transform="matrix(4.166667,0,0,4.166667,1275.299167,507.626667)">
                <path d="M0,0.17C-0.639,0.131 -1.257,0.068 -1.875,0.063C-2.396,0.06 -2.916,0.131 -3.438,0.154C-3.729,0.167 -3.792,0.318 -3.756,0.574C-3.52,2.299 -1.952,2.933 -0.564,1.864C-0.467,1.79 -0.366,1.722 -0.256,1.644C-0.139,2.164 -0.225,2.381 -0.645,2.546C-1.207,2.766 -1.763,3.018 -2.399,2.892C-4.417,2.495 -5.325,0.801 -4.542,-1.115C-4.091,-2.217 -2.911,-2.848 -1.744,-2.61C-0.503,-2.357 0.217,-1.244 0,0.17M-0.966,-0.372C-0.902,-1.389 -1.436,-2.15 -2.194,-2.157C-3.043,-2.165 -3.709,-1.383 -3.681,-0.372L-0.966,-0.372Z" style="fill:white;fill-rule:nonzero;"/>
            </g>
            <g transform="matrix(4.166667,0,0,4.166667,1232.139167,501.907083)">
                <path d="M0,3.031C0.006,3.489 -0.129,3.759 -0.486,3.919C-1.146,4.212 -1.814,4.384 -2.541,4.218C-4.126,3.856 -4.95,2.43 -4.528,0.764C-4.211,-0.483 -3.401,-1.202 -2.236,-1.265C-0.635,-1.353 0.357,-0.236 0.177,1.521C-0.063,1.521 -0.311,1.52 -0.558,1.521C-1.458,1.525 -2.357,1.528 -3.256,1.536C-3.546,1.539 -3.675,1.664 -3.569,1.969C-3.477,2.234 -3.444,2.527 -3.317,2.773C-2.83,3.72 -1.816,4.029 -0.861,3.538C-0.588,3.397 -0.331,3.227 0,3.031M-2.171,1.029L-2.171,1.027C-1.789,1.027 -1.407,1.042 -1.026,1.018C-0.921,1.011 -0.75,0.9 -0.734,0.814C-0.591,0.054 -1.402,-0.832 -2.167,-0.775C-2.833,-0.726 -3.569,0.1 -3.518,0.774C-3.51,0.866 -3.337,1.008 -3.23,1.018C-2.88,1.048 -2.524,1.029 -2.171,1.029" style="fill:white;fill-rule:nonzero;"/>
            </g>
            <g transform="matrix(4.166667,0,0,4.166667,1181.160417,502.237917)">
                <path d="M0,3.058C-0.135,3.28 -0.217,3.58 -0.413,3.712C-1.716,4.587 -3.665,4.268 -4.388,2.85C-4.975,1.699 -4.745,0.056 -3.793,-0.746C-3.002,-1.412 -2.08,-1.529 -1.128,-1.12C-0.191,-0.717 0.126,0.091 0.164,1.043C0.178,1.383 -0.029,1.483 -0.515,1.447C-1.106,1.403 -1.699,1.362 -2.291,1.358C-2.656,1.355 -3.025,1.404 -3.385,1.472C-3.491,1.492 -3.668,1.692 -3.647,1.75C-3.473,2.235 -3.349,2.778 -3.039,3.167C-2.478,3.871 -1.332,3.854 -0.492,3.234C-0.371,3.145 -0.254,3.051 -0.136,2.959C-0.09,2.992 -0.045,3.025 0,3.058M-2.22,0.95L-2.22,0.954C-1.853,0.954 -1.485,0.97 -1.12,0.945C-1.015,0.938 -0.848,0.831 -0.828,0.742C-0.674,0.07 -1.377,-0.821 -2.064,-0.854C-2.868,-0.893 -3.62,-0.155 -3.596,0.68C-3.593,0.773 -3.422,0.929 -3.319,0.938C-2.955,0.969 -2.586,0.95 -2.22,0.95" style="fill:white;fill-rule:nonzero;"/>
            </g>
            <g transform="matrix(4.166667,0,0,4.166667,691.076667,519.54625)">
                <path d="M0,-5.321L0,-4.504C0.556,-5.278 1.241,-5.458 2.012,-5.411C2.761,-5.365 3.281,-4.917 3.419,-4.175C3.473,-3.886 3.489,-3.586 3.491,-3.29C3.496,-2.385 3.485,-1.48 3.483,-0.574C3.482,-0.075 3.403,-0.025 2.769,-0.077C2.343,-0.112 2.531,-0.388 2.534,-0.606C2.549,-1.635 2.601,-2.665 2.549,-3.69C2.515,-4.37 1.991,-4.801 1.391,-4.835C0.864,-4.865 0.136,-4.482 0.091,-3.751C0.025,-2.669 0,-1.584 -0.019,-0.5C-0.022,-0.269 0.031,-0.043 -0.298,-0.082C-0.56,-0.114 -1,0.137 -0.996,-0.411C-0.983,-1.952 -0.952,-3.492 -0.909,-5.033C-0.907,-5.131 -0.757,-5.285 -0.652,-5.308C-0.454,-5.352 -0.238,-5.321 0,-5.321" style="fill:white;fill-rule:nonzero;"/>
            </g>
            <g transform="matrix(4.166667,0,0,4.166667,865.627083,516.008333)">
                <path d="M0,-3.743C0.46,-4.374 1.064,-4.553 1.741,-4.569C2.688,-4.592 3.375,-4.026 3.407,-3.088C3.448,-1.915 3.412,-0.738 3.411,0.437C3.411,0.849 3.107,0.752 2.866,0.775C2.589,0.802 2.48,0.681 2.493,0.408C2.517,-0.101 2.542,-0.61 2.542,-1.119C2.542,-1.683 2.546,-2.25 2.487,-2.809C2.416,-3.48 1.916,-3.953 1.339,-3.975C0.683,-4.001 0.126,-3.634 0.048,-2.941C-0.07,-1.907 -0.06,-0.858 -0.111,0.184C-0.12,0.366 -0.116,0.675 -0.195,0.702C-0.423,0.781 -0.691,0.758 -0.942,0.744C-0.981,0.742 -1.042,0.584 -1.042,0.498C-1.029,-1.002 -1.012,-2.502 -0.983,-4.001C-0.98,-4.152 -0.919,-4.413 -0.842,-4.43C-0.618,-4.48 -0.335,-4.499 -0.148,-4.398C-0.035,-4.336 -0.056,-4.027 0,-3.743" style="fill:white;fill-rule:nonzero;"/>
            </g>
            <g transform="matrix(4.166667,0,0,4.166667,1010.3575,501.296667)">
                <path d="M0,3.153C0.082,3.52 0.05,3.757 -0.216,3.942C-1.099,4.555 -2.564,4.582 -3.438,3.985C-4.466,3.283 -4.64,2.253 -4.49,1.128C-4.272,-0.515 -2.89,-1.429 -1.284,-1.021C-0.246,-0.756 0.505,0.401 0.282,1.433C0.26,1.535 0.052,1.669 -0.068,1.667C-0.731,1.656 -1.394,1.589 -2.057,1.578C-2.421,1.572 -2.787,1.644 -3.152,1.673C-3.468,1.698 -3.577,1.872 -3.509,2.162C-3.351,2.838 -3.133,3.488 -2.411,3.769C-1.677,4.055 -0.994,3.91 -0.371,3.446C-0.261,3.364 -0.156,3.277 0,3.153M-3.496,1.174C-2.622,1.174 -1.778,1.18 -0.935,1.166C-0.856,1.165 -0.73,1.059 -0.71,0.981C-0.521,0.216 -1.193,-0.597 -1.976,-0.646C-2.825,-0.699 -3.397,0.057 -3.496,1.174" style="fill:white;fill-rule:nonzero;"/>
            </g>
            <g transform="matrix(4.166667,0,0,4.166667,1115.781667,498.46875)">
                <path d="M0,4.64C-0.347,5.051 -1.102,5.085 -1.386,4.704C-1.59,4.431 -1.707,4.498 -1.924,4.653C-2.567,5.113 -3.27,5.227 -4.01,4.913C-4.528,4.693 -4.777,4.286 -4.75,3.697C-4.724,3.128 -4.548,2.619 -3.947,2.426C-3.438,2.263 -2.91,2.154 -2.388,2.032C-1.597,1.847 -1.539,1.789 -1.597,1.163C-1.652,0.575 -2.069,0.162 -2.644,0.148C-3.17,0.136 -3.667,0.209 -3.969,0.723C-3.997,0.769 -4.049,0.803 -4.095,0.834C-4.114,0.847 -4.148,0.84 -4.175,0.841C-4.337,0.321 -4.266,0.125 -3.794,-0.097C-3.05,-0.448 -2.288,-0.587 -1.51,-0.2C-0.988,0.059 -0.679,0.467 -0.679,1.072C-0.68,1.892 -0.687,2.713 -0.683,3.533C-0.68,4.031 -0.831,4.62 0,4.64M-1.62,2.213C-2.227,2.412 -2.778,2.534 -3.272,2.774C-3.741,3 -3.891,3.521 -3.736,3.968C-3.589,4.395 -3.256,4.596 -2.738,4.572C-2.292,4.552 -1.658,4.142 -1.63,3.793C-1.59,3.307 -1.62,2.816 -1.62,2.213" style="fill:white;fill-rule:nonzero;"/>
            </g>
            <g transform="matrix(4.166667,0,0,4.166667,764.67875,517.874583)">
                <path d="M0,-4.712C-0.083,-4.437 -0.158,-4.186 -0.262,-3.841C-0.419,-4.02 -0.527,-4.134 -0.626,-4.256C-0.973,-4.678 -1.703,-4.708 -2.062,-4.312C-2.401,-3.938 -2.35,-3.351 -1.91,-3.108C-1.581,-2.925 -1.208,-2.814 -0.845,-2.701C-0.038,-2.447 0.415,-1.902 0.356,-1.222C0.29,-0.453 -0.465,0.362 -1.206,0.403C-1.64,0.426 -2.085,0.4 -2.512,0.321C-3.212,0.191 -3.285,-0.099 -2.843,-0.656C-2.491,-0.451 -2.165,-0.156 -1.793,-0.077C-1.494,-0.013 -1.078,-0.125 -0.821,-0.308C-0.302,-0.68 -0.402,-1.376 -0.977,-1.66C-1.292,-1.816 -1.635,-1.915 -1.966,-2.037C-2.784,-2.34 -3.127,-2.827 -3.06,-3.594C-2.993,-4.353 -2.514,-4.848 -1.71,-5.013C-1.1,-5.138 -0.54,-5.038 0,-4.712" style="fill:white;fill-rule:nonzero;"/>
            </g>
            <g transform="matrix(4.166667,0,0,4.166667,1068.709167,515.211667)">
                <path d="M0,-3.112C-0.21,-3.308 -0.371,-3.486 -0.558,-3.629C-1.221,-4.134 -2.048,-4.07 -2.639,-3.484C-3.501,-2.628 -3.524,-0.818 -2.685,0.065C-2.135,0.645 -1.224,0.79 -0.495,0.406C-0.259,0.281 -0.038,0.131 0.215,-0.023C0.399,0.277 0.302,0.501 0.064,0.669C-1.016,1.433 -2.958,1.167 -3.735,0.157C-4.658,-1.045 -4.524,-2.786 -3.442,-3.734C-2.57,-4.498 -0.926,-4.545 0.059,-4.067C0.162,-4.017 0.244,-3.794 0.229,-3.664C0.207,-3.479 0.086,-3.307 0,-3.112" style="fill:white;fill-rule:nonzero;"/>
            </g>
            <g transform="matrix(4.166667,0,0,4.166667,1195.109167,513.307083)">
                <path d="M0,-2.701C-0.191,-2.919 -0.318,-3.087 -0.469,-3.23C-0.776,-3.525 -1.205,-3.588 -1.521,-3.402C-1.86,-3.204 -2.069,-2.715 -1.927,-2.331C-1.872,-2.18 -1.71,-2.029 -1.559,-1.96C-1.239,-1.816 -0.896,-1.72 -0.56,-1.613C0.306,-1.337 0.693,-0.786 0.583,0.023C0.484,0.743 -0.294,1.488 -1.008,1.509C-1.374,1.52 -1.743,1.488 -2.106,1.439C-2.859,1.335 -2.963,1.113 -2.579,0.37C-2.423,0.489 -2.273,0.599 -2.128,0.716C-1.718,1.046 -1.278,1.226 -0.755,0.992C-0.416,0.839 -0.213,0.581 -0.198,0.206C-0.183,-0.171 -0.352,-0.452 -0.711,-0.592C-1.092,-0.742 -1.48,-0.875 -1.864,-1.021C-2.797,-1.374 -3.107,-2.507 -2.49,-3.3C-1.964,-3.974 -0.64,-4.221 0.077,-3.76C0.17,-3.701 0.253,-3.523 0.236,-3.416C0.2,-3.189 0.095,-2.973 0,-2.701" style="fill:white;fill-rule:nonzero;"/>
            </g>
            <g transform="matrix(4.166667,0,0,4.166667,719.80375,501.795833)">
                <path d="M0,3.065C0.508,1.774 0.976,0.597 1.433,-0.584C1.61,-1.042 1.737,-1.117 2.318,-1.003C2.261,-0.857 2.212,-0.716 2.154,-0.579C1.542,0.835 0.925,2.247 0.321,3.665C0.205,3.938 0.101,4.18 -0.252,4.197C-0.627,4.215 -0.716,3.946 -0.828,3.68C-1.468,2.156 -2.112,0.634 -2.753,-0.89C-2.768,-0.925 -2.76,-0.969 -2.765,-1.046C-2.45,-1.065 -2.129,-1.15 -1.848,-1.078C-1.683,-1.035 -1.537,-0.761 -1.46,-0.562C-1.067,0.468 -0.704,1.509 -0.319,2.541C-0.261,2.697 -0.145,2.831 0,3.065" style="fill:white;fill-rule:nonzero;"/>
            </g>
            <g transform="matrix(4.166667,0,0,4.166667,1245.15375,501.734583)">
                <path d="M0,3.074C0.528,1.747 1.007,0.571 1.46,-0.614C1.615,-1.017 1.862,-1.118 2.28,-0.997C2.254,-0.893 2.242,-0.798 2.206,-0.713C1.555,0.807 0.908,2.329 0.235,3.84C0.164,4 -0.061,4.186 -0.217,4.189C-0.396,4.192 -0.679,4.046 -0.744,3.892C-1.422,2.279 -2.066,0.652 -2.756,-1.061C-2.399,-1.061 -2.069,-1.083 -1.746,-1.046C-1.656,-1.036 -1.553,-0.865 -1.511,-0.748C-1.112,0.34 -0.73,1.434 -0.332,2.521C-0.27,2.689 -0.146,2.835 0,3.074" style="fill:white;fill-rule:nonzero;"/>
            </g>
            <g transform="matrix(4.166667,0,0,4.166667,773.520833,514.145417)">
                <path d="M0,-3.947C0.29,-3.947 0.56,-3.973 0.819,-3.935C0.933,-3.919 1.027,-3.772 1.129,-3.684C1.024,-3.605 0.924,-3.466 0.812,-3.456C-0.047,-3.378 -0.049,-3.386 -0.051,-2.506C-0.054,-1.728 -0.057,-0.951 -0.053,-0.173C-0.049,0.69 0.178,0.903 1.026,0.867C1.114,0.864 1.204,0.903 1.293,0.922C1.305,0.966 1.317,1.01 1.329,1.054C1.154,1.126 0.984,1.222 0.802,1.267C-0.232,1.524 -0.957,1.011 -0.987,-0.038C-1.016,-1.04 -0.996,-2.044 -0.98,-3.048C-0.977,-3.297 -1.005,-3.438 -1.302,-3.467C-1.459,-3.482 -1.601,-3.642 -1.837,-3.791C-1.625,-3.878 -1.532,-3.954 -1.454,-3.942C-0.979,-3.869 -0.974,-4.147 -0.98,-4.497C-0.996,-5.274 -0.822,-5.44 0,-5.471L0,-3.947Z" style="fill:white;fill-rule:nonzero;"/>
            </g>
            <g transform="matrix(4.166667,0,0,4.166667,681.205417,519.560833)">
                <path d="M0,-7.636L0,-6.13C0.001,-4.278 -0.012,-2.426 0.014,-0.574C0.019,-0.165 -0.072,0 -0.495,-0.065C-0.669,-0.092 -0.855,-0.053 -1.093,-0.041C-1.093,-0.539 -1.098,-1.014 -1.092,-1.488C-1.068,-3.342 -1.04,-5.195 -1.018,-7.048C-1.011,-7.634 -1.019,-7.634 -0.417,-7.636L0,-7.636" style="fill:white;fill-rule:nonzero;"/>
            </g>
            <g transform="matrix(-4.166392,-0.047835,-0.047835,4.166392,970.517015,382.910177)">
                <path d="M0.02,-2.616C-0.741,-2.62 -1.349,-2.029 -1.344,-1.288C-1.339,-0.589 -0.718,-0.003 0.02,-0.003C0.76,-0.002 1.354,-0.588 1.348,-1.313C1.342,-2.058 0.777,-2.612 0.02,-2.616" style="fill:white;fill-rule:nonzero;"/>
            </g>
            <g transform="matrix(4.166667,0,0,4.166667,855.448333,516.907917)">
                <path d="M0,-3.925C0,-2.734 -0.002,-1.366 0.001,0.001C0.003,0.503 -0.458,0.794 -0.889,0.539C-0.962,0.496 -1.01,0.353 -1.01,0.256C-1.019,-1.298 -1.022,-2.852 -1.005,-4.406C-1.003,-4.506 -0.821,-4.607 -0.715,-4.699C-0.691,-4.719 -0.633,-4.699 -0.59,-4.699C0.02,-4.698 0.02,-4.698 0,-3.925" style="fill:white;fill-rule:nonzero;"/>
            </g>
            <g transform="matrix(4.166667,0,0,4.166667,785.345417,518.910417)">
                <path d="M0,-5.211L0,-4.593C0,-3.205 0.005,-1.817 -0.007,-0.429C-0.009,-0.265 -0.081,0.015 -0.172,0.038C-0.406,0.097 -0.674,0.065 -0.917,0.015C-0.971,0.004 -1.004,-0.229 -1.004,-0.36C-1.006,-1.844 -0.991,-3.328 -1.004,-4.812C-1.007,-5.134 -0.979,-5.308 -0.597,-5.218C-0.424,-5.177 -0.235,-5.211 0,-5.211" style="fill:white;fill-rule:nonzero;"/>
            </g>
            <g transform="matrix(4.166667,0,0,4.166667,1348.8525,519.407917)">
                <path d="M0,-5.285L0.998,-5.285L0.998,-4.652C0.999,-3.268 1,-1.884 1.001,-0.5C1.002,-0.006 0.98,0 0.274,-0.037C-0.15,-0.058 0.016,-0.348 0.017,-0.561C0.025,-1.985 0.038,-3.409 0.046,-4.833C0.046,-4.969 0.019,-5.106 0,-5.285" style="fill:white;fill-rule:nonzero;"/>
            </g>
            <g transform="matrix(4.165466,0.100028,0.100028,-4.165466,783.33231,491.778934)">
                <path d="M0.014,-0.001C-0.298,0.002 -0.539,0.255 -0.535,0.575C-0.53,0.884 -0.267,1.167 0.014,1.165C0.316,1.164 0.64,0.855 0.627,0.581C0.613,0.266 0.327,-0.005 0.014,-0.001" style="fill:white;fill-rule:nonzero;"/>
            </g>
            <g transform="matrix(0.096956,-4.165538,-4.165538,-0.096956,853.557271,486.912801)">
                <path d="M-0.604,-0.548C-0.88,-0.523 -1.124,-0.428 -1.146,-0.064C-1.17,0.297 -0.922,0.61 -0.604,0.612C-0.316,0.615 -0.026,0.32 -0.01,0.006C0.006,-0.296 -0.232,-0.53 -0.604,-0.548" style="fill:white;fill-rule:nonzero;"/>
            </g>
            <g transform="matrix(4.165583,0.095005,0.095005,-4.165583,1351.241643,491.71061)">
                <path d="M0.013,-0C-0.305,-0.002 -0.568,0.24 -0.571,0.541C-0.576,0.856 -0.301,1.138 0.013,1.14C0.296,1.142 0.587,0.85 0.579,0.572C0.57,0.271 0.305,0.003 0.013,-0" style="fill:white;fill-rule:nonzero;"/>
            </g>
            <g transform="matrix(4.166667,0,0,4.166667,452.500417,544.251667)">
                <path d="M0,-1.168C0.022,0.526 -0.839,1.698 -1.976,2.685C-2.755,3.361 -3.474,3.311 -4.278,2.657C-5.458,1.697 -6.237,0.52 -6.281,-1.06C-6.344,-3.321 -4.342,-4.529 -2.47,-4.159C-1.104,-3.889 0.15,-2.771 0,-1.168" style="fill:white;fill-rule:nonzero;"/>
            </g>
            <g transform="matrix(4.166667,0,0,4.166667,426.204583,352.659583)">
                <path d="M0,0.177C0.073,-1.105 0.914,-2.394 2.32,-3.344C2.734,-3.623 3.202,-3.649 3.66,-3.446C4.919,-2.889 6.612,-0.807 6.252,1.2C5.907,3.128 4.816,3.826 2.996,3.81C1.176,3.794 -0.009,2.43 0,0.177" style="fill:white;fill-rule:nonzero;"/>
            </g>
            <g transform="matrix(4.166667,0,0,4.166667,347.76625,461.92)">
                <path d="M0,-6.565C1.459,-6.646 2.612,-5.523 2.951,-4.176C3.298,-2.797 2.66,-1.228 1.495,-0.622C0.144,0.081 -1.169,-0.19 -2.375,-0.947C-2.996,-1.337 -3.533,-1.89 -4.029,-2.44C-4.533,-2.997 -4.533,-3.69 -4.098,-4.286C-3.114,-5.634 -1.877,-6.585 0,-6.565" style="fill:white;fill-rule:nonzero;"/>
            </g>
            <g transform="matrix(4.166667,0,0,4.166667,505.05375,528.845417)">
                <path d="M0,-7.067C1.445,-7.004 2.354,-6.126 2.928,-4.935C3.411,-3.934 3.524,-2.822 3.292,-1.702C3.171,-1.123 2.849,-0.756 2.29,-0.549C0.749,0.021 -1.781,-0.743 -2.743,-2.075C-3.855,-3.617 -3.23,-5.57 -1.841,-6.497C-1.292,-6.863 -0.682,-7.088 0,-7.067" style="fill:white;fill-rule:nonzero;"/>
            </g>
            <g transform="matrix(4.166667,0,0,4.166667,519.150833,385.965833)">
                <path d="M0,-1.898C-0.129,-0.598 -0.418,0.645 -1.484,1.569C-2.706,2.627 -4.41,2.598 -5.6,1.492C-7.301,-0.089 -7.087,-2.396 -5.061,-3.658C-3.989,-4.327 -2.776,-4.525 -1.511,-4.314C-0.692,-4.178 -0.232,-3.705 -0.116,-2.892C-0.07,-2.571 -0.04,-2.248 0,-1.898" style="fill:white;fill-rule:nonzero;"/>
            </g>
            <g transform="matrix(4.166667,0,0,4.166667,369.91375,497.83375)">
                <path d="M0,7.176C-0.518,7.086 -0.919,7.02 -1.319,6.946C-1.905,6.839 -2.236,6.475 -2.341,5.9C-2.68,4.042 -2.369,2.355 -0.865,1.088C0.427,0 2.271,0.222 3.4,1.491C4.929,3.21 4.385,5.779 1.883,6.752C1.263,6.993 0.571,7.052 0,7.176" style="fill:white;fill-rule:nonzero;"/>
            </g>
            <g transform="matrix(4.166667,0,0,4.166667,368.849583,397.58875)">
                <path d="M0,-7.085C1.069,-7.15 1.963,-6.932 2.784,-6.427C4.852,-5.153 4.981,-2.97 3.58,-1.396C2.485,-0.165 0.528,0.065 -0.827,-1.242C-2.21,-2.576 -2.418,-4.212 -2.094,-5.98C-1.971,-6.647 -1.441,-7.019 -0.7,-7.081C-0.433,-7.104 -0.162,-7.085 0,-7.085" style="fill:white;fill-rule:nonzero;"/>
            </g>
            <g transform="matrix(4.166667,0,0,4.166667,534.492917,433.3475)">
                <path d="M0,6.513C-3.319,6.653 -4.481,3.885 -3.537,1.951C-2.691,0.22 -0.711,-0.14 0.831,0.559C1.743,0.972 2.555,1.54 3.147,2.368C3.692,3.13 3.665,3.801 3.082,4.539C2.108,5.77 0.841,6.45 0,6.513" style="fill:white;fill-rule:nonzero;"/>
            </g>
        </g>
    </g>
</svg>
